<svg xmlns="http://www.w3.org/2000/svg" width="512" height="512" viewBox="0 0 512 512">
  <defs>
    <linearGradient id="g" x1="0" x2="0" y1="0" y2="1">
      <stop offset="0" stop-color="#0f7a3a"/>
      <stop offset="1" stop-color="#0a5a2b"/>
    </linearGradient>
  </defs>
  <rect width="512" height="512" fill="url(#g)"/>
  <g opacity="0.2">
    <path d="M0 32h512v4H0zM0 64h512v4H0zM0 96h512v4H0zM0 128h512v4H0zM0 160h512v4H0zM0 192h512v4H0zM0 224h512v4H0zM0 256h512v4H0zM0 288h512v4H0zM0 320h512v4H0zM0 352h512v4H0zM0 384h512v4H0zM0 416h512v4H0zM0 448h512v4H0zM0 480h512v4H0z" fill="#000"/>
  </g>
</svg>
